{
	"asset":{
		"generator":"Khronos glTF Blender I/O v3.6.27",
		"version":"2.0"
	},
	"scene":0,
	"scenes":[
		{
			"name":"Scene",
			"nodes":[
				0,
				1
			]
		}
	],
	"nodes":[
		{
			"mesh":0,
			"name":"Plane.001"
		},
		{
			"mesh":1,
			"name":"Plane"
		}
	],
	"materials":[
		{
			"doubleSided":true,
			"name":"Material.001",
			"pbrMetallicRoughness":{
				"baseColorTexture":{
					"index":0
				},
				"metallicFactor":0,
				"roughnessFactor":0.5
			}
		},
		{
			"doubleSided":true,
			"name":"Material",
			"pbrMetallicRoughness":{
				"baseColorTexture":{
					"index":1
				},
				"metallicFactor":0,
				"roughnessFactor":0.5
			}
		}
	],
	"meshes":[
		{
			"name":"Plane.002",
			"primitives":[
				{
					"attributes":{
						"POSITION":0,
						"NORMAL":1,
						"TEXCOORD_0":2
					},
					"indices":3,
					"material":0
				}
			]
		},
		{
			"name":"Plane",
			"primitives":[
				{
					"attributes":{
						"POSITION":4,
						"NORMAL":5,
						"TEXCOORD_0":6
					},
					"indices":7,
					"material":1
				}
			]
		}
	],
	"textures":[
		{
			"sampler":0,
			"source":0
		},
		{
			"sampler":0,
			"source":1
		}
	],
	"images":[
		{
			"bufferView":4,
			"mimeType":"image/png",
			"name":"yukkiSword"
		},
		{
			"bufferView":9,
			"mimeType":"image/png",
			"name":"mitoScythe"
		}
	],
	"accessors":[
		{
			"bufferView":0,
			"componentType":5126,
			"count":3893,
			"max":[
				0.09423477947711945,
				0.02572145126760006,
				0.9041693806648254
			],
			"min":[
				-0.09423477947711945,
				-0.02572145126760006,
				-1.0746318101882935
			],
			"type":"VEC3"
		},
		{
			"bufferView":1,
			"componentType":5126,
			"count":3893,
			"type":"VEC3"
		},
		{
			"bufferView":2,
			"componentType":5126,
			"count":3893,
			"type":"VEC2"
		},
		{
			"bufferView":3,
			"componentType":5123,
			"count":11292,
			"type":"SCALAR"
		},
		{
			"bufferView":5,
			"componentType":5126,
			"count":1656,
			"max":[
				1.6207623481750488,
				0.05127691105008125,
				1.3933570384979248
			],
			"min":[
				-0.6216588020324707,
				-0.04277997091412544,
				-1.145003318786621
			],
			"type":"VEC3"
		},
		{
			"bufferView":6,
			"componentType":5126,
			"count":1656,
			"type":"VEC3"
		},
		{
			"bufferView":7,
			"componentType":5126,
			"count":1656,
			"type":"VEC2"
		},
		{
			"bufferView":8,
			"componentType":5123,
			"count":5442,
			"type":"SCALAR"
		}
	],
	"bufferViews":[
		{
			"buffer":0,
			"byteLength":46716,
			"byteOffset":0,
			"target":34962
		},
		{
			"buffer":0,
			"byteLength":46716,
			"byteOffset":46716,
			"target":34962
		},
		{
			"buffer":0,
			"byteLength":31144,
			"byteOffset":93432,
			"target":34962
		},
		{
			"buffer":0,
			"byteLength":22584,
			"byteOffset":124576,
			"target":34963
		},
		{
			"buffer":0,
			"byteLength":148234,
			"byteOffset":147160
		},
		{
			"buffer":0,
			"byteLength":19872,
			"byteOffset":295396,
			"target":34962
		},
		{
			"buffer":0,
			"byteLength":19872,
			"byteOffset":315268,
			"target":34962
		},
		{
			"buffer":0,
			"byteLength":13248,
			"byteOffset":335140,
			"target":34962
		},
		{
			"buffer":0,
			"byteLength":10884,
			"byteOffset":348388,
			"target":34963
		},
		{
			"buffer":0,
			"byteLength":131519,
			"byteOffset":359272
		}
	],
	"samplers":[
		{
			"magFilter":9729,
			"minFilter":9987
		}
	],
	"buffers":[
		{
			"byteLength":490792,
			"uri":"data:application/octet-stream;base64,"
		}
	]
}
